# xmcd CD database file generated by OrangeCD 6.4
#
# Track frame offsets:
#	150
#	35635
#	55303
#	64111
#	115008
#	140389
#	167504
#	195841
#	202220
#	214600
#	219420
#	235839
#	253629
#	255273
#	264029
#	271077
#	286761
#	293268
#	296169
#	300269
#	302947
#	307367
#	310103
#	314768
#	320800
#	330577
#
# Disc length: 4552 seconds
#
# Revision: 0
# Processed by: cddbd v1.5.2PL0 Copyright (c) Steve Scherf et al.
# Submitted via: OrangeCD 6.4
#
DISCID=8111c61a
DTITLE=Jimi Hendrix - The Late Studio Sessions 1969-1970
DYEAR=2010
DGENRE=Blues Rock
TTITLE0=Instrumental Jam (JS26)
TTITLE1=Freedom
TTITLE2=Further On Up The Road
TTITLE3=Astro Man (Take 7)
TTITLE4=Beginning (Jam Back At The House)
TTITLE5=Bolero
TTITLE6=Midnight Lightning Jam
TTITLE7=Come Down Hard On Me Baby
TTITLE8=Midnight Lightning
TTITLE9=Bolero Session 7
TTITLE10=Bolero Session 8
TTITLE11=Bolero Session 9
TTITLE12=Bolero Session 11
TTITLE13=Bolero Session 12
TTITLE14=Bolero Session 13
TTITLE15=Bolero Session 14
TTITLE16=Bolero Session 2
TTITLE17=Bolero Session 3
TTITLE18=Bolero Session 4
TTITLE19=Bolero Session 17
TTITLE20=Bolero Session 18
TTITLE21=Bolero Session 19
TTITLE22=Bolero Session 20
TTITLE23=Bolero Session 21
TTITLE24=Bolero Session 22
TTITLE25=Belly Button Window
EXTD=
EXTT0=
EXTT1=
EXTT2=
EXTT3=
EXTT4=
EXTT5=
EXTT6=
EXTT7=
EXTT8=
EXTT9=
EXTT10=
EXTT11=
EXTT12=
EXTT13=
EXTT14=
EXTT15=
EXTT16=
EXTT17=
EXTT18=
EXTT19=
EXTT20=
EXTT21=
EXTT22=
EXTT23=
EXTT24=
EXTT25=
PLAYORDER=
